{"title":"Bob's Burgers 311 720p XBOX360/PS3 READY","uid":8017822,"size":395201196,"categoryP":"video","categoryS":"hd___tv_shows","magnet":"?xt=urn:btih:504cb3cf458668f18cb809f163b68200d0b822c9&amp;dn=Bob%27s+Burgers+311+720p+XBOX360%2FPS3+READY&amp;tr=udp%3A%2F%2Ftracker.openbittorrent.com%3A80&amp;tr=udp%3A%2F%2Fopen.demonii.com%3A1337&amp;tr=udp%3A%2F%2Ftracker.coppersurfer.tk%3A6969&amp;tr=udp%3A%2F%2Fexodus.desync.com%3A6969","seeders":3,"leechers":0,"uploader":"Danimal1q2w3","files":1,"time":1358136886,"description":"Bob's Burgers 311 720p XBOX360/PS3 READY\n\n[[[[SEEEEEEDDDDD]]]]\n\n\nVideo\nID                                       : 0\nFormat                                   : MPEG-4 Visual\nFormat profile                           : Simple@L3\nFormat settings, BVOP                    : No\nFormat settings, QPel                    : No\nFormat settings, GMC                     : No warppoints\nFormat settings, Matrix                  : Default (H.263)\nCodec ID                                 : XVID\nCodec ID/Hint                            : XviD\nDuration                                 : 21mn 37s\nSource duration                          : 21mn 37s\nBit rate                                 : 2 111 Kbps\nWidth                                    : 1 280 pixels\nHeight                                   : 720 pixels\nDisplay aspect ratio                     : 16:9\nFrame rate                               : 24.000 fps\nColor space                              : YUV\nChroma subsampling                       : 4:2:0\nBit depth                                : 8 bits\nScan type                                : Progressive\nCompression mode                         : Lossy\nBits/(Pixel*Frame)                       : 0.095\nStream size                              : 327 MiB (87%)\nWriting library                          : XviD 63\n\nAudio\nID                                       : 1\nFormat                                   : MPEG Audio\nFormat version                           : Version 1\nFormat profile                           : Layer 3\nMode                                     : Joint stereo\nCodec ID                                 : 55\nCodec ID/Hint                            : MP3\nDuration                                 : 21mn 37s\nBit rate mode                            : Variable\nBit rate                                 : 313 Kbps\nChannel(s)                               : 2 channels\nSampling rate                            : 48.0 KHz\nCompression mode                         : Lossy\nStream size                              : 48.4 MiB (13%)\nAlignment                                : Aligned on interleaves\nInterleave, duration                     : 24 ms (0.58 video frame)\nInterleave, preload duration             : 498 ms\n\n","torrent":{"xt":"urn:btih:504cb3cf458668f18cb809f163b68200d0b822c9","amp;dn":"Bob%27s+Burgers+311+720p+XBOX360%2FPS3+READY","amp;tr":["udp%3A%2F%2Ftracker.openbittorrent.com%3A80","udp%3A%2F%2Fopen.demonii.com%3A1337","udp%3A%2F%2Ftracker.coppersurfer.tk%3A6969","udp%3A%2F%2Fexodus.desync.com%3A6969"],"infoHash":"504cb3cf458668f18cb809f163b68200d0b822c9","infoHashBuffer":{"type":"Buffer","data":[80,76,179,207,69,134,104,241,140,184,9,241,99,182,130,0,208,184,34,201]},"announce":[],"urlList":[]}}